<?xml version="1.0" encoding="utf-8"?>
<!-- Generator: Adobe Illustrator 26.0.1, SVG Export Plug-In . SVG Version: 6.00 Build 0)  -->
<svg version="1.1" id="Capa_1" xmlns="http://www.w3.org/2000/svg" xmlns:xlink="http://www.w3.org/1999/xlink" x="0px" y="0px"
	 viewBox="0 0 319.5 248.1" style="enable-background:new 0 0 319.5 248.1;" xml:space="preserve">
<style type="text/css">
	.st0{fill-rule:evenodd;clip-rule:evenodd;fill:#E1251B;}
	.st1{fill-rule:evenodd;clip-rule:evenodd;fill:#0075C9;}
	.st2{fill-rule:evenodd;clip-rule:evenodd;fill:#FFED00;}
	.st3{fill-rule:evenodd;clip-rule:evenodd;fill:#F18A00;}
	.st4{fill:#261F26;}
	.st5{fill-rule:evenodd;clip-rule:evenodd;}
	.st6{fill:none;stroke:#2D2A26;stroke-width:0.3967;stroke-miterlimit:3.8007;}
</style>
<g>
	<path class="st0" d="M65.1,110.7c0.5,5,0,25.8-19.2,54.5c-20.2,31.8,11.6,84.4,75.3,70.7c14.2,5,28.8,5.6,38.9,5.6
		c9.6,0,25.2-0.5,38.9-5.6c63.7,13.6,95-39.4,75.3-71.2c-19.2-28.8-19.7-49.5-19.2-54.5h-190V110.7z"/>
	<g>
		<path class="st1" d="M160.1,241.5c-62.1-1.5-73.8-30.3-56.6-36.4c10.1-3.5,23.3-9.6,23.3-9.6c-6.6-32.3,4.1-73.8,33.4-73.3
			c29.3,0,39.9,42.5,32.8,74.3c0,0,13.1,4.5,23.3,8.6C232.8,211.2,222.7,239.5,160.1,241.5"/>
		<path class="st2" d="M136.9,218.8c-16.7-46.5-2-89.4,23.3-89.4c24.3,0,40.9,41.9,23.7,89.4c0,0-8.1-2-24.3-2
			C147.5,216.7,136.9,218.8,136.9,218.8"/>
		<path class="st3" d="M160.1,241.5c25.2,0,45-5.6,45-12.6c0-7.6-19.7-12.6-45-12.6s-45,5.6-45,12.6
			C115.6,236.5,135.3,241.5,160.1,241.5"/>
		<path class="st1" d="M77.2,133.4h30.3c5,0,8.6,4.1,8.6,8.6v20.2c0,5-4.1,8.6-8.6,8.6H77.2c-5,0-8.6-4.1-8.6-8.6V142
			C68.6,136.9,72.7,133.4,77.2,133.4"/>
	</g>
	<path d="M80.8,137.9h23.7c3.5,0,6.6,3,6.6,6.6v14.7c0,3.5-3,6.6-6.6,6.6H80.8c-3.5,0-6.6-3-6.6-6.6v-14.7
		C74.2,141,77.2,137.9,80.8,137.9"/>
	<path class="st2" d="M111.1,155.6c-10.6-1-14.7-13.6-15.1-17.7h9.1c3.5,0,6.6,3,6.6,6.6v11.1H111.1z M89.9,137.9
		c-1,3.5-4.1,17.2-15.7,17.7v-11.1c0-3.5,3-6.6,6.6-6.6C80.8,137.9,89.9,137.9,89.9,137.9z"/>
	<path class="st1" d="M213.1,133.4h30.3c5,0,8.6,4.1,8.6,8.6v20.2c0,5-3.5,8.6-8.6,8.6h-30.3c-4.5,0-8.6-4.1-8.6-8.6V142
		C204.6,136.9,208.1,133.4,213.1,133.4"/>
	<path d="M216.7,137.9h23.7c3.5,0,6.6,3,6.6,6.6v14.7c0,3.5-3,6.6-6.6,6.6h-23.7c-3.5,0-6.6-3-6.6-6.6v-14.7
		C210.1,141,213.1,137.9,216.7,137.9"/>
	<path class="st2" d="M247,155.6c-10.6-1-14.7-13.6-15.7-17.7h9.1c3.5,0,6.6,3,6.6,6.6V155.6z M225.8,137.9
		c-0.5,3.5-4.1,17.2-15.7,17.7v-11.1c0-3.5,3-6.6,6.6-6.6C216.7,137.9,225.8,137.9,225.8,137.9z"/>
	<path class="st0" d="M222.7,32.3c-3-10.6-3.5-16.2,6-16.2h21.7c13.1,0,7.6,10.1,6.6,20.2c-1.5,13.1-1.5,17.2-1.5,17.2L222.7,32.3z"
		/>
	<path class="st3" d="M160.1,109.6c-32.3,0-77.3,2.5-106.1,5c-22.2,1.5-38.9-15.1-24.3-30.8C61,50,136.8,7.6,160.1,7.6
		c24.8,0,99,42.9,130.4,76.3c14.7,15.7,0,30.8-22.2,30.8C244,114.7,192.4,109.6,160.1,109.6"/>
	<path class="st4" d="M177.8,184.9c0-2.5,2-4.5,4.1-4.5c2.5,0,4.1,2,4.1,4.5c0,2.5-1.5,4.5-4.1,4.5
		C179.8,189.5,177.8,187.4,177.8,184.9"/>
	<path class="st5" d="M160.1,215.2c-13.1,0-23.3,2-23.3,2c-15.7-45-1-87.4,23.3-87.4c24.8,0,38.9,42.5,23.3,87.4
		C183.8,217.3,173.7,215.2,160.1,215.2 M183.3,218.8c12.6,2,21.2,5.6,21.2,10.1c0,6.6-19.7,11.6-44,11.6s-44-5-44-11.6
		c0-4.1,8.6-8.1,21.2-10.1c0,0,13.6-1.5,22.7-1.5C169.2,217.3,183.3,218.8,183.3,218.8 M184.8,217.3c16.2-46.5,0.5-89.4-24.8-89.4
		s-40.9,42.9-24.8,89.4c-12.6,2.5-20.7,6.6-20.7,11.6c0,1.5,1,3,2.5,4.5c-20.7-9.1-22.7-24.3-11.6-28.3c10.1-3.5,22.2-8.1,22.2-8.1
		c-6.6-31.3,3.5-73.3,32.3-73.3s38.9,41.9,32.3,73.3c0,0,12.1,5,22.2,8.1c11.1,3.5,9.6,18.7-11.1,28.3c1.5-1.5,2.5-3,2.5-4.1
		C206.1,224.3,197.5,219.8,184.8,217.3 M224.2,31.8c-2.5-9.6-2.5-14.2,6-14.2H249c12.6-0.5,7.1,9.1,6,18.7c-0.5,6-1,10.6-1.5,14.2
		C244,44,233.9,37.4,224.2,31.8 M202.5,235.5c59.6,10.1,88.9-39.9,69.7-70.3c-14.7-22.2-18.2-40.4-18.7-50
		c-39.4-2-66.2-4.1-92.9-4.1c-27.3,0.5-54.1,2-93,4.1c-0.5,9.6-4.1,27.8-18.7,50c-19.2,30.3,10.1,80.3,69.7,70.2
		c-25.2-9.6-28.3-25.8-14.7-31.3c10.1-4.1,23.3-8.6,23.3-8.6c-6.6-32.3,5-74.8,33.8-74.8s40.4,42.5,33.8,74.8c0,0,13.1,5,23.3,8.6
		C230.8,209.7,227.8,225.8,202.5,235.5 M160.1,107.1c-33.8,0.5-65.7,3-103.1,5C33.7,113.7,20.6,98,35.3,81.8
		C57,58.1,130.8,9.6,160.1,9.6s103.1,49,124.8,72.2c14.7,16.2,1.5,31.8-21.7,30.3C225.8,110.1,193.9,107.6,160.1,107.1 M219.7,29.3
		c-0.5-1-0.5-2-1-3c-1.5-5.6,0-12.1,9.6-12.1H250c13.1,0,11.6,8.6,9.1,17.2c-1.5,6-3,13.6-3.5,21.2c0,0,17.7,13.1,27.8,21.7
		c31.3,26.3,10.6,43.5-18.7,41.9c-3,0-6-0.5-8.6-0.5c0,8.6,3,24.8,16.7,42.9c34.4,41.4-11.1,93-75.8,78.8c-10.6,3.5-27.8,5-36.9,5
		s-26.3-1.5-36.9-5C58.5,252.1,13,200.1,47.4,158.6c13.6-18.2,16.2-34.4,16.2-43.5l-8.6,0.5C25.2,117.2,5,100,36.3,73.7
		C82.8,34.9,138.4,5.6,160.1,5.6C172.2,6.1,194.5,14.7,219.7,29.3"/>
	<path class="st6" d="M77.2,133.4h30.3c5,0,8.6,4.1,8.6,8.6v20.2c0,5-4.1,8.6-8.6,8.6H77.2c-5,0-8.6-4.1-8.6-8.6V142
		C68.6,136.9,72.7,133.4,77.2,133.4z M213.1,133.4h30.3c5,0,8.6,4.1,8.6,8.6v20.2c0,5-3.5,8.6-8.6,8.6h-30.3c-4.5,0-8.6-4.1-8.6-8.6
		V142C204.6,136.9,208.1,133.4,213.1,133.4z"/>
</g>
</svg>
